<mxfile host="app.diagrams.net" modified="2024-02-11T17:31:18.707Z" agent="Mozilla/5.0 (Windows NT 10.0; Win64; x64) AppleWebKit/537.36 (KHTML, like Gecko) Chrome/121.0.0.0 Safari/537.36" etag="LHOD2iXw9ukmqgYiZBUa" version="23.1.2" type="github">
  <diagram name="Page-1" id="6pJ7Lz_t5_9dPmRba4Vz">
    <mxGraphModel dx="1985" dy="1135" grid="1" gridSize="10" guides="1" tooltips="1" connect="1" arrows="1" fold="1" page="1" pageScale="1" pageWidth="827" pageHeight="1169" math="0" shadow="0">
      <root>
        <mxCell id="0" />
        <mxCell id="1" parent="0" />
        <mxCell id="OsBTXwwYn3eKCj9GG4Sa-24" style="edgeStyle=orthogonalEdgeStyle;rounded=0;orthogonalLoop=1;jettySize=auto;html=1;entryX=0.5;entryY=0;entryDx=0;entryDy=0;" edge="1" parent="1" source="OsBTXwwYn3eKCj9GG4Sa-2" target="OsBTXwwYn3eKCj9GG4Sa-3">
          <mxGeometry relative="1" as="geometry" />
        </mxCell>
        <mxCell id="OsBTXwwYn3eKCj9GG4Sa-2" value="&lt;font style=&quot;font-size: 14px;&quot;&gt;first number&lt;br&gt;second number&lt;br&gt;third number&lt;/font&gt;" style="rounded=1;whiteSpace=wrap;html=1;absoluteArcSize=1;arcSize=14;strokeWidth=2;" vertex="1" parent="1">
          <mxGeometry x="330" y="150" width="100" height="60" as="geometry" />
        </mxCell>
        <mxCell id="OsBTXwwYn3eKCj9GG4Sa-25" value="" style="edgeStyle=orthogonalEdgeStyle;rounded=0;orthogonalLoop=1;jettySize=auto;html=1;" edge="1" parent="1" source="OsBTXwwYn3eKCj9GG4Sa-3" target="OsBTXwwYn3eKCj9GG4Sa-5">
          <mxGeometry relative="1" as="geometry" />
        </mxCell>
        <mxCell id="OsBTXwwYn3eKCj9GG4Sa-3" value="&lt;font style=&quot;font-size: 14px;&quot;&gt;enter the value of a&lt;br&gt;enter the value of b&lt;br&gt;enter the value of c&lt;/font&gt;" style="shape=parallelogram;html=1;strokeWidth=2;perimeter=parallelogramPerimeter;whiteSpace=wrap;rounded=1;arcSize=12;size=0.23;" vertex="1" parent="1">
          <mxGeometry x="270" y="270" width="220" height="60" as="geometry" />
        </mxCell>
        <mxCell id="OsBTXwwYn3eKCj9GG4Sa-27" style="edgeStyle=orthogonalEdgeStyle;rounded=0;orthogonalLoop=1;jettySize=auto;html=1;exitX=0.5;exitY=1;exitDx=0;exitDy=0;exitPerimeter=0;" edge="1" parent="1" source="OsBTXwwYn3eKCj9GG4Sa-5">
          <mxGeometry relative="1" as="geometry">
            <mxPoint x="380.3333333333335" y="540" as="targetPoint" />
          </mxGeometry>
        </mxCell>
        <mxCell id="OsBTXwwYn3eKCj9GG4Sa-5" value="&lt;font style=&quot;font-size: 16px;&quot;&gt;a==b &amp;amp;&amp;amp;&lt;br&gt;b==c&lt;/font&gt;" style="strokeWidth=2;html=1;shape=mxgraph.flowchart.decision;whiteSpace=wrap;" vertex="1" parent="1">
          <mxGeometry x="330" y="380" width="100" height="100" as="geometry" />
        </mxCell>
        <mxCell id="OsBTXwwYn3eKCj9GG4Sa-19" value="" style="edgeStyle=orthogonalEdgeStyle;rounded=0;orthogonalLoop=1;jettySize=auto;html=1;" edge="1" parent="1" source="OsBTXwwYn3eKCj9GG4Sa-6" target="OsBTXwwYn3eKCj9GG4Sa-2">
          <mxGeometry relative="1" as="geometry">
            <Array as="points">
              <mxPoint x="370" y="120" />
              <mxPoint x="370" y="120" />
            </Array>
          </mxGeometry>
        </mxCell>
        <mxCell id="OsBTXwwYn3eKCj9GG4Sa-6" value="&lt;font style=&quot;font-size: 16px;&quot;&gt;start&lt;/font&gt;&lt;br&gt;" style="strokeWidth=2;html=1;shape=mxgraph.flowchart.start_2;whiteSpace=wrap;" vertex="1" parent="1">
          <mxGeometry x="320" y="20" width="100" height="50" as="geometry" />
        </mxCell>
        <mxCell id="OsBTXwwYn3eKCj9GG4Sa-28" style="edgeStyle=orthogonalEdgeStyle;rounded=0;orthogonalLoop=1;jettySize=auto;html=1;entryX=0.25;entryY=0;entryDx=0;entryDy=0;" edge="1" parent="1" source="OsBTXwwYn3eKCj9GG4Sa-7" target="OsBTXwwYn3eKCj9GG4Sa-11">
          <mxGeometry relative="1" as="geometry" />
        </mxCell>
        <mxCell id="OsBTXwwYn3eKCj9GG4Sa-47" value="&lt;font style=&quot;font-size: 14px;&quot;&gt;No&lt;/font&gt;&lt;br&gt;" style="edgeLabel;html=1;align=center;verticalAlign=middle;resizable=0;points=[];" vertex="1" connectable="0" parent="OsBTXwwYn3eKCj9GG4Sa-28">
          <mxGeometry x="-0.204" y="1" relative="1" as="geometry">
            <mxPoint as="offset" />
          </mxGeometry>
        </mxCell>
        <mxCell id="OsBTXwwYn3eKCj9GG4Sa-29" style="edgeStyle=orthogonalEdgeStyle;rounded=0;orthogonalLoop=1;jettySize=auto;html=1;entryX=0.5;entryY=0;entryDx=0;entryDy=0;entryPerimeter=0;" edge="1" parent="1" source="OsBTXwwYn3eKCj9GG4Sa-7" target="OsBTXwwYn3eKCj9GG4Sa-12">
          <mxGeometry relative="1" as="geometry">
            <mxPoint x="650" y="630" as="targetPoint" />
            <Array as="points">
              <mxPoint x="650" y="590" />
            </Array>
          </mxGeometry>
        </mxCell>
        <mxCell id="OsBTXwwYn3eKCj9GG4Sa-46" value="&lt;font style=&quot;font-size: 15px;&quot;&gt;Yes&lt;/font&gt;&lt;br&gt;" style="edgeLabel;html=1;align=center;verticalAlign=middle;resizable=0;points=[];" vertex="1" connectable="0" parent="OsBTXwwYn3eKCj9GG4Sa-29">
          <mxGeometry x="-0.3351" y="-6" relative="1" as="geometry">
            <mxPoint as="offset" />
          </mxGeometry>
        </mxCell>
        <mxCell id="OsBTXwwYn3eKCj9GG4Sa-7" value="&lt;span style=&quot;font-size: 18px;&quot;&gt;a&amp;lt;=b&lt;br&gt;&lt;/span&gt;" style="strokeWidth=2;html=1;shape=mxgraph.flowchart.decision;whiteSpace=wrap;" vertex="1" parent="1">
          <mxGeometry x="310" y="540" width="140" height="100" as="geometry" />
        </mxCell>
        <mxCell id="OsBTXwwYn3eKCj9GG4Sa-10" style="edgeStyle=orthogonalEdgeStyle;rounded=0;orthogonalLoop=1;jettySize=auto;html=1;exitX=0.5;exitY=1;exitDx=0;exitDy=0;" edge="1" parent="1">
          <mxGeometry relative="1" as="geometry">
            <mxPoint x="164.99999999999955" y="800" as="sourcePoint" />
            <mxPoint x="164.99999999999955" y="800" as="targetPoint" />
          </mxGeometry>
        </mxCell>
        <mxCell id="OsBTXwwYn3eKCj9GG4Sa-39" style="edgeStyle=orthogonalEdgeStyle;rounded=0;orthogonalLoop=1;jettySize=auto;html=1;exitX=0.5;exitY=1;exitDx=0;exitDy=0;entryX=-0.008;entryY=0.752;entryDx=0;entryDy=0;entryPerimeter=0;" edge="1" parent="1" source="OsBTXwwYn3eKCj9GG4Sa-11" target="OsBTXwwYn3eKCj9GG4Sa-18">
          <mxGeometry relative="1" as="geometry">
            <mxPoint x="320" y="1050.0000000000002" as="targetPoint" />
            <Array as="points">
              <mxPoint x="90" y="1050" />
              <mxPoint x="329" y="1050" />
            </Array>
          </mxGeometry>
        </mxCell>
        <mxCell id="OsBTXwwYn3eKCj9GG4Sa-11" value="&lt;font style=&quot;font-size: 14px;&quot;&gt;print b is the minimum value&lt;/font&gt;" style="rounded=0;whiteSpace=wrap;html=1;" vertex="1" parent="1">
          <mxGeometry x="30" y="730" width="120" height="70" as="geometry" />
        </mxCell>
        <mxCell id="OsBTXwwYn3eKCj9GG4Sa-31" style="edgeStyle=orthogonalEdgeStyle;rounded=0;orthogonalLoop=1;jettySize=auto;html=1;entryX=0.5;entryY=0;entryDx=0;entryDy=0;" edge="1" parent="1" source="OsBTXwwYn3eKCj9GG4Sa-12" target="OsBTXwwYn3eKCj9GG4Sa-14">
          <mxGeometry relative="1" as="geometry" />
        </mxCell>
        <mxCell id="OsBTXwwYn3eKCj9GG4Sa-44" value="&lt;font style=&quot;font-size: 13px;&quot;&gt;No&lt;/font&gt;&lt;br&gt;" style="edgeLabel;html=1;align=center;verticalAlign=middle;resizable=0;points=[];" vertex="1" connectable="0" parent="OsBTXwwYn3eKCj9GG4Sa-31">
          <mxGeometry x="-0.3691" y="4" relative="1" as="geometry">
            <mxPoint as="offset" />
          </mxGeometry>
        </mxCell>
        <mxCell id="OsBTXwwYn3eKCj9GG4Sa-33" style="edgeStyle=orthogonalEdgeStyle;rounded=0;orthogonalLoop=1;jettySize=auto;html=1;exitX=1;exitY=0.5;exitDx=0;exitDy=0;exitPerimeter=0;entryX=0.5;entryY=0;entryDx=0;entryDy=0;" edge="1" parent="1" source="OsBTXwwYn3eKCj9GG4Sa-12" target="OsBTXwwYn3eKCj9GG4Sa-16">
          <mxGeometry relative="1" as="geometry">
            <mxPoint x="760" y="810" as="targetPoint" />
            <mxPoint x="720" y="690.0000000000002" as="sourcePoint" />
            <Array as="points">
              <mxPoint x="761" y="690" />
              <mxPoint x="761" y="810" />
            </Array>
          </mxGeometry>
        </mxCell>
        <mxCell id="OsBTXwwYn3eKCj9GG4Sa-45" value="&lt;font style=&quot;font-size: 13px;&quot;&gt;Yes&lt;/font&gt;&lt;br&gt;" style="edgeLabel;html=1;align=center;verticalAlign=middle;resizable=0;points=[];" vertex="1" connectable="0" parent="OsBTXwwYn3eKCj9GG4Sa-33">
          <mxGeometry x="-0.6706" y="1" relative="1" as="geometry">
            <mxPoint as="offset" />
          </mxGeometry>
        </mxCell>
        <mxCell id="OsBTXwwYn3eKCj9GG4Sa-12" value="&lt;font style=&quot;font-size: 16px;&quot;&gt;a&amp;lt;=c&lt;/font&gt;" style="strokeWidth=2;html=1;shape=mxgraph.flowchart.decision;whiteSpace=wrap;" vertex="1" parent="1">
          <mxGeometry x="600" y="640" width="100" height="100" as="geometry" />
        </mxCell>
        <mxCell id="OsBTXwwYn3eKCj9GG4Sa-14" value="&lt;font style=&quot;font-size: 14px;&quot;&gt;print c number is the minimum number&lt;/font&gt;" style="rounded=0;whiteSpace=wrap;html=1;" vertex="1" parent="1">
          <mxGeometry x="320" y="830" width="120" height="60" as="geometry" />
        </mxCell>
        <mxCell id="OsBTXwwYn3eKCj9GG4Sa-34" style="edgeStyle=orthogonalEdgeStyle;rounded=0;orthogonalLoop=1;jettySize=auto;html=1;exitX=1;exitY=0.25;exitDx=0;exitDy=0;" edge="1" parent="1" source="OsBTXwwYn3eKCj9GG4Sa-16">
          <mxGeometry relative="1" as="geometry">
            <mxPoint x="790" y="844.6666666666667" as="targetPoint" />
          </mxGeometry>
        </mxCell>
        <mxCell id="OsBTXwwYn3eKCj9GG4Sa-16" value="&lt;font style=&quot;font-size: 14px;&quot;&gt;print a is the minimum number&lt;/font&gt;" style="rounded=0;whiteSpace=wrap;html=1;" vertex="1" parent="1">
          <mxGeometry x="700" y="830" width="120" height="70" as="geometry" />
        </mxCell>
        <mxCell id="OsBTXwwYn3eKCj9GG4Sa-18" value="&lt;font style=&quot;font-size: 16px;&quot;&gt;end&lt;/font&gt;" style="strokeWidth=2;html=1;shape=mxgraph.flowchart.start_2;whiteSpace=wrap;" vertex="1" parent="1">
          <mxGeometry x="330" y="980" width="100" height="100" as="geometry" />
        </mxCell>
        <mxCell id="OsBTXwwYn3eKCj9GG4Sa-37" style="edgeStyle=orthogonalEdgeStyle;rounded=0;orthogonalLoop=1;jettySize=auto;html=1;entryX=0.5;entryY=0;entryDx=0;entryDy=0;entryPerimeter=0;" edge="1" parent="1" source="OsBTXwwYn3eKCj9GG4Sa-14" target="OsBTXwwYn3eKCj9GG4Sa-18">
          <mxGeometry relative="1" as="geometry" />
        </mxCell>
        <mxCell id="OsBTXwwYn3eKCj9GG4Sa-38" style="edgeStyle=orthogonalEdgeStyle;rounded=0;orthogonalLoop=1;jettySize=auto;html=1;" edge="1" parent="1">
          <mxGeometry relative="1" as="geometry">
            <mxPoint x="759.7" y="920.0000000000002" as="sourcePoint" />
            <mxPoint x="430" y="1030" as="targetPoint" />
            <Array as="points">
              <mxPoint x="760" y="1040" />
              <mxPoint x="440" y="1040" />
              <mxPoint x="440" y="1030" />
            </Array>
          </mxGeometry>
        </mxCell>
      </root>
    </mxGraphModel>
  </diagram>
</mxfile>
